<?xml version="1.0" encoding="utf-8"?>
<!-- Generator: Adobe Illustrator 16.0.0, SVG Export Plug-In . SVG Version: 6.00 Build 0)  -->
<!DOCTYPE svg PUBLIC "-//W3C//DTD SVG 1.1//EN" "http://www.w3.org/Graphics/SVG/1.1/DTD/svg11.dtd">
<svg version="1.1" id="Layer_1" xmlns="http://www.w3.org/2000/svg" xmlns:xlink="http://www.w3.org/1999/xlink" x="0px" y="0px"
	 width="227.936px" height="169.963px" viewBox="0 0 227.936 169.963" enable-background="new 0 0 227.936 169.963"
	 xml:space="preserve">
<g>
	<g>
		<path fill="#FFFFFF" d="M227.838,12.559C227.791,5.606,222.152,0,215.184,0c-7,0-12.672,5.671-12.672,12.655
			c0,0.479,0.049,0.961,0.098,1.441v117.885c0,7-5.672,12.67-12.655,12.67c-7,0-12.67-5.67-12.67-12.67v-18.405l0,0
			c-0.064-6.938-5.703-12.543-12.673-12.543c-6.952,0-12.592,5.604-12.653,12.543l0,0v18.741
			c-0.179,6.824-5.769,12.334-12.656,12.334h-0.016c-6.984,0-12.654-5.67-12.654-12.67V37.997c0-7.017,5.67-12.671,12.654-12.671
			c6.969,0,12.623,5.623,12.672,12.559v25.423l0,0c0.062,6.952,5.701,12.559,12.653,12.559c6.97,0,12.607-5.606,12.673-12.559l0,0
			V12.655C177.283,5.671,171.611,0,164.611,0h-0.016l0,0H126.63h-25.326H12.686l0,0H12.67C5.686,0,0.047,5.606,0,12.559l0,0v144.652
			l0,0c0.047,6.953,5.686,12.592,12.67,12.592c6.953,0,12.606-5.639,12.656-12.592l0,0V37.997c0-7.017,5.67-12.671,12.653-12.671
			h50.668c6.984,0,12.656,5.654,12.656,12.671v93.984c0,7-5.672,12.67-12.656,12.67c-7,0-12.67-5.67-12.67-12.67v-18.166H75.96
			c0-0.049,0.018-0.08,0.018-0.129c0-7-5.672-12.653-12.672-12.653c-6.984,0-12.654,5.653-12.654,12.653c0,0.049,0,0.08,0,0.129l0,0
			v43.459l0,0c0.08,6.92,5.72,12.527,12.654,12.527c0.049,0,0.096,0,0.129-0.016v0.176h151.748l0,0c0.031,0,0.049,0,0.08,0
			c7,0,12.654-5.654,12.672-12.654l0,0V12.559H227.838z"/>
		<path fill="#FFFFFF" d="M63.307,75.979c7,0,12.672-5.687,12.672-12.671s-5.672-12.655-12.672-12.655
			c-6.984,0-12.654,5.671-12.654,12.655S56.322,75.979,63.307,75.979z"/>
	</g>
</g>
</svg>
